<!DOCTYPE svg PUBLIC "-//W3C//DTD SVG 1.1//EN" "http://www.w3.org/Graphics/SVG/1.1/DTD/svg11.dtd">
<!-- Uploaded to: SVG Repo, www.svgrepo.com, Transformed by: SVG Repo Mixer Tools -->
<svg version="1.1" id="Icons" xmlns="http://www.w3.org/2000/svg" xmlns:xlink="http://www.w3.org/1999/xlink" viewBox="-9.6 -9.6 51.20 51.20" xml:space="preserve" width="256px" height="256px" fill="#f8fafc" stroke="#f8fafc" transform="rotate(0)matrix(-1, 0, 0, 1, 0, 0)">
<g id="SVGRepo_bgCarrier" stroke-width="0" transform="translate(0,0), scale(1)">
<path transform="translate(-9.6, -9.6), scale(3.2)" fill="#030712" d="M9.166.33a2.25 2.25 0 00-2.332 0l-5.25 3.182A2.25 2.25 0 00.5 5.436v5.128a2.25 2.25 0 001.084 1.924l5.25 3.182a2.25 2.25 0 002.332 0l5.25-3.182a2.25 2.25 0 001.084-1.924V5.436a2.25 2.25 0 00-1.084-1.924L9.166.33z" strokewidth="0"/>
</g>
<g id="SVGRepo_tracerCarrier" stroke-linecap="round" stroke-linejoin="round" stroke="#CCCCCC" stroke-width="0.704"/>
<g id="SVGRepo_iconCarrier"> <style type="text/css"> .st0{fill:none;stroke:#f9fafb;stroke-width:1.28;stroke-linecap:round;stroke-linejoin:round;stroke-miterlimit:10;} .st1{fill:none;stroke:#f9fafb;stroke-width:1.28;stroke-linecap:round;stroke-linejoin:round;} .st2{fill:none;stroke:#f9fafb;stroke-width:1.28;stroke-linecap:round;stroke-linejoin:round;stroke-dasharray:5.2066,0;} </style> <line class="st0" x1="3" y1="11" x2="29" y2="11"/> <line class="st0" x1="7" y1="8" x2="7" y2="8"/> <line class="st0" x1="10" y1="8" x2="10" y2="8"/> <line class="st0" x1="13" y1="8" x2="13" y2="8"/> <path class="st0" d="M8.8,27H3V5h26v22l-5.8,0c0.3-0.1,0.6-0.1,0.9-0.1c0.1-0.6,0.2-1.3,0.2-1.9c0-0.7-0.1-1.3-0.2-1.9 c-1,0.1-2-0.3-2.5-1.3c-0.5-0.9-0.4-2,0.2-2.8c-0.9-0.9-2.1-1.6-3.4-2c-0.4,0.9-1.3,1.6-2.4,1.6s-2-0.7-2.4-1.6 c-1.3,0.4-2.4,1.1-3.4,2c0.6,0.8,0.7,1.9,0.2,2.8c-0.5,0.9-1.6,1.4-2.5,1.3c-0.1,0.6-0.2,1.3-0.2,1.9c0,0.7,0.1,1.3,0.2,1.9 C8.2,26.9,8.5,26.9,8.8,27L8.8,27z"/> <circle class="st0" cx="16" cy="25" r="3"/> </g>
</svg>